<svg xmlns="http://www.w3.org/2000/svg" viewBox="0 0 48 48" fill="none">
  <defs>
    <linearGradient id="aicmsDarkGrad" x1="0%" y1="0%" x2="100%" y2="100%">
      <stop offset="0%" stop-color="#f472b6"/>
      <stop offset="100%" stop-color="#ec4899"/>
    </linearGradient>
  </defs>
  <!-- 背景 -->
  <rect x="2" y="2" width="44" height="44" rx="10" fill="url(#aicmsDarkGrad)"/>
  <!-- AI客服: 对话气泡 + AI闪烁 -->
  <g fill="none" stroke="#ffffff" stroke-linecap="round" stroke-linejoin="round">
    <!-- 主对话气泡 -->
    <path d="M10 14 C10 12.3 11.3 11 13 11 L31 11 C32.7 11 34 12.3 34 14 L34 26 C34 27.7 32.7 29 31 29 L22 29 L17 34 L17 29 L13 29 C11.3 29 10 27.7 10 26 Z" stroke-width="2" fill="white" fill-opacity="0.18"/>
    <!-- 三个省略点 - 对话中 -->
    <circle cx="17" cy="20" r="1.8" fill="#ffffff" stroke="none"/>
    <circle cx="22" cy="20" r="1.8" fill="#ffffff" stroke="none"/>
    <circle cx="27" cy="20" r="1.8" fill="#ffffff" stroke="none"/>
    <!-- AI星芒 - 右上角 -->
    <path d="M36 9 L37.2 12.8 L41 14 L37.2 15.2 L36 19 L34.8 15.2 L31 14 L34.8 12.8 Z" fill="#ffffff" fill-opacity="0.9" stroke="none"/>
    <!-- 小星芒 -->
    <path d="M38 22 L38.6 24 L40.6 24.6 L38.6 25.2 L38 27.2 L37.4 25.2 L35.4 24.6 L37.4 24 Z" fill="#ffffff" fill-opacity="0.55" stroke="none"/>
    <!-- 底部小回复气泡 -->
    <rect x="22" y="32" width="18" height="8" rx="4" fill="white" fill-opacity="0.22" stroke-width="1.5"/>
    <line x1="26" y1="36" x2="36" y2="36" stroke-width="1.5" stroke="#ffffff" opacity="0.7"/>
  </g>
</svg>