<svg xmlns="http://www.w3.org/2000/svg" width="320" height="88" viewBox="0 0 320 88" role="img" aria-labelledby="title desc">
  <title id="title">开轩智伴</title>
  <desc id="desc">开轩智伴品牌标识</desc>
  <defs>
    <linearGradient id="kxCompLightGrad" x1="0%" y1="0%" x2="100%" y2="100%">
      <stop offset="0%" stop-color="#7c3aed"/>
      <stop offset="100%" stop-color="#6d28d9"/>
    </linearGradient>
  </defs>
  <!-- 圆形底 -->
  <circle cx="44" cy="44" r="36" fill="url(#kxCompLightGrad)"/>
  <!-- 人物头 -->
  <circle cx="36" cy="30" r="7.5" fill="#ffffff" opacity="0.92"/>
  <!-- 人物身体 -->
  <path d="M22,50 Q22,40 36,40 Q50,40 50,50 L50,58 Q50,60 48,60 L24,60 Q22,60 22,58 Z" fill="#ffffff" opacity="0.88"/>
  <!-- 对话气泡 (右上) -->
  <rect x="50" y="18" width="22" height="15" rx="5" fill="#ffffff" opacity="0.92"/>
  <circle cx="55" cy="25.5" r="1.8" fill="#7c3aed" opacity="0.7"/>
  <circle cx="61" cy="25.5" r="1.8" fill="#7c3aed" opacity="0.7"/>
  <circle cx="67" cy="25.5" r="1.8" fill="#7c3aed" opacity="0.7"/>
  <!-- 气泡尾巴 -->
  <polygon points="53,33 49,38 57,33" fill="#ffffff" opacity="0.92"/>
  <!-- AI 脑回路 (右下) -->
  <circle cx="62" cy="50" r="10" fill="none" stroke="#c4b5fd" stroke-width="1.8" opacity="0.7"/>
  <path d="M57,47 Q62,42 67,47 M58,50 Q62,55 66,50 M60,44 L60,56 M64,44 L64,56" fill="none" stroke="#c4b5fd" stroke-width="1.2" opacity="0.5"/>
  <!-- 连接线 -->
  <line x1="50" y1="50" x2="52" y2="50" stroke="#ddd6fe" stroke-width="1.5" stroke-dasharray="2,2" opacity="0.6"/>
  <!-- 品牌文字 -->
  <text x="98" y="53" font-family="'PingFang SC','Microsoft YaHei',sans-serif" font-size="28" font-weight="700" fill="#111827" letter-spacing="1.5">开轩智伴</text>
</svg>
